<svg width="416" height="53" viewBox="0 0 416 53" fill="none" xmlns="http://www.w3.org/2000/svg">
<path d="M26.6011 52.0571L9.75372 24.7713H9.57638L9.81283 52.0571H0V10.3328H11.5271L28.3153 37.5597H28.4927L28.2562 10.3328H38.0691V52.0571H26.6011Z" fill="white"/>
<path d="M59.4113 39.2687H58.1699C57.1059 39.2687 56.0222 39.3276 54.9187 39.4455C53.8547 39.5241 52.8891 39.7009 52.0221 39.9759C51.1946 40.2509 50.5049 40.6635 49.9532 41.2135C49.4015 41.7242 49.1256 42.4118 49.1256 43.2761C49.1256 43.8262 49.2438 44.2976 49.4803 44.6905C49.7561 45.0834 50.0911 45.3977 50.4852 45.6334C50.8793 45.8692 51.3325 46.046 51.8448 46.1638C52.3571 46.2424 52.8497 46.2817 53.3226 46.2817C55.2931 46.2817 56.7906 45.7513 57.8153 44.6905C58.8793 43.5904 59.4113 42.1171 59.4113 40.2706V39.2687ZM41.6182 26.7161C43.3522 25.066 45.362 23.8284 47.6478 23.0033C49.9729 22.1783 52.3374 21.7658 54.7414 21.7658C57.2241 21.7658 59.3128 22.0801 61.0074 22.7087C62.7414 23.298 64.1404 24.2409 65.2045 25.5374C66.2685 26.7947 67.037 28.4055 67.5099 30.3699C68.0222 32.295 68.2784 34.5934 68.2784 37.265V52.0571H59.4113V48.9337H59.234C58.4852 50.1516 57.3424 51.0945 55.8054 51.7624C54.3079 52.4303 52.6724 52.7643 50.899 52.7643C49.7167 52.7643 48.495 52.6071 47.234 52.2928C45.9729 51.9785 44.8103 51.4678 43.7463 50.7606C42.7216 50.0534 41.8743 49.1104 41.2044 47.9318C40.5344 46.7531 40.1995 45.2995 40.1995 43.5708C40.1995 41.4492 40.7709 39.7402 41.9137 38.4437C43.096 37.1471 44.5936 36.1453 46.4064 35.4381C48.2586 34.7309 50.3079 34.2594 52.5542 34.0237C54.8005 33.788 56.9877 33.6701 59.1158 33.6701V33.1987C59.1158 31.745 58.6034 30.6842 57.5788 30.0163C56.5542 29.3091 55.2931 28.9555 53.7956 28.9555C52.4162 28.9555 51.0763 29.2502 49.7758 29.8395C48.5148 30.4288 47.431 31.136 46.5246 31.9611L41.6182 26.7161Z" fill="white"/>
<path d="M81.3212 29.9574V41.1546C81.3212 42.5296 81.5773 43.5708 82.0897 44.278C82.6414 44.9459 83.6069 45.2798 84.9862 45.2798C85.4591 45.2798 85.9517 45.2405 86.4641 45.162C87.0158 45.0834 87.469 44.9655 87.8237 44.8084L87.9419 51.8803C87.2719 52.116 86.4246 52.3125 85.4 52.4696C84.3754 52.6661 83.3507 52.7643 82.3261 52.7643C80.3557 52.7643 78.7005 52.5285 77.3606 52.0571C76.0207 51.5463 74.9369 50.8391 74.1093 49.9355C73.3212 48.9926 72.7497 47.8925 72.3951 46.6353C72.0404 45.3388 71.863 43.9047 71.863 42.3332V29.9574H67.134V22.7087H71.8039V14.9885H81.3212V22.7087H88.2375V29.9574H81.3212Z" fill="white"/>
<path d="M108.045 52.0571V47.9907H107.926C107.572 48.6586 107.099 49.2872 106.508 49.8766C105.956 50.4659 105.286 50.9766 104.498 51.4088C103.749 51.841 102.902 52.1946 101.956 52.4696C101.05 52.7446 100.084 52.8821 99.0594 52.8821C97.0889 52.8821 95.4141 52.5285 94.0347 51.8213C92.6948 51.1142 91.5914 50.2105 90.7244 49.1105C89.8968 47.9711 89.286 46.6942 88.8919 45.2798C88.5372 43.8262 88.3598 42.3529 88.3598 40.8599V22.7087H98.1136V38.6205C98.1136 39.4455 98.1727 40.2313 98.2909 40.9778C98.4091 41.7242 98.6259 42.3921 98.9412 42.9815C99.2958 43.5708 99.749 44.0423 100.301 44.3959C100.852 44.7102 101.582 44.8673 102.488 44.8673C104.183 44.8673 105.463 44.2387 106.33 42.9815C107.237 41.7242 107.69 40.2509 107.69 38.5615V22.7087H117.385V52.0571H108.045Z" fill="white"/>
<path d="M139.922 30.6056C139.489 30.4878 139.055 30.4092 138.622 30.3699C138.227 30.3306 137.833 30.311 137.439 30.311C136.139 30.311 135.035 30.5467 134.129 31.0182C133.262 31.4896 132.553 32.0593 132.001 32.7272C131.488 33.3951 131.114 34.1219 130.878 34.9077C130.641 35.6935 130.523 36.381 130.523 36.9703V52.0571H120.828V22.7087H130.168V26.9518H130.287C131.035 25.4589 132.099 24.2409 133.479 23.298C134.858 22.3551 136.454 21.8836 138.267 21.8836C138.661 21.8836 139.035 21.9033 139.39 21.9425C139.784 21.9818 140.099 22.0408 140.336 22.1193L139.922 30.6056Z" fill="white"/>
<path d="M156.584 39.2687H155.342C154.278 39.2687 153.195 39.3276 152.091 39.4455C151.027 39.5241 150.062 39.7009 149.195 39.9759C148.367 40.2509 147.677 40.6635 147.126 41.2135C146.574 41.7242 146.298 42.4118 146.298 43.2761C146.298 43.8262 146.416 44.2976 146.653 44.6905C146.928 45.0834 147.263 45.3977 147.658 45.6334C148.052 45.8692 148.505 46.046 149.017 46.1638C149.529 46.2424 150.022 46.2817 150.495 46.2817C152.465 46.2817 153.963 45.7513 154.988 44.6905C156.052 43.5904 156.584 42.1171 156.584 40.2706V39.2687ZM138.791 26.7161C140.525 25.066 142.534 23.8284 144.82 23.0033C147.145 22.1783 149.51 21.7658 151.914 21.7658C154.396 21.7658 156.485 22.0801 158.18 22.7087C159.914 23.298 161.313 24.2409 162.377 25.5374C163.441 26.7947 164.209 28.4055 164.682 30.3699C165.195 32.295 165.451 34.5934 165.451 37.265V52.0571H156.584V48.9337H156.406C155.658 50.1516 154.515 51.0945 152.978 51.7624C151.48 52.4303 149.845 52.7643 148.071 52.7643C146.889 52.7643 145.667 52.6071 144.406 52.2928C143.145 51.9785 141.983 51.4678 140.919 50.7606C139.894 50.0534 139.047 49.1104 138.377 47.9318C137.707 46.7531 137.372 45.2995 137.372 43.5708C137.372 41.4492 137.943 39.7402 139.086 38.4437C140.268 37.1471 141.766 36.1453 143.579 35.4381C145.431 34.7309 147.48 34.2594 149.727 34.0237C151.973 33.788 154.16 33.6701 156.288 33.6701V33.1987C156.288 31.745 155.776 30.6842 154.751 30.0163C153.727 29.3091 152.465 28.9555 150.968 28.9555C149.589 28.9555 148.249 29.2502 146.948 29.8395C145.687 30.4288 144.603 31.136 143.697 31.9611L138.791 26.7161Z" fill="white"/>
<path d="M168.667 52.0571V7.50407H178.48V52.0571H168.667Z" fill="white"/>
<path d="M204.954 52.0571L195.909 35.497H192.481V52.0571H182.55V10.3328H198.51C200.52 10.3328 202.471 10.5489 204.363 10.9811C206.294 11.374 208.008 12.0615 209.505 13.0437C211.042 14.0259 212.264 15.3225 213.171 16.9333C214.077 18.5441 214.53 20.5478 214.53 22.9444C214.53 25.7732 213.762 28.1501 212.225 30.0752C210.688 32.0004 208.56 33.3755 205.84 34.2005L216.776 52.0571H204.954ZM204.54 23.1212C204.54 22.139 204.323 21.3532 203.89 20.7639C203.496 20.1353 202.964 19.6638 202.294 19.3495C201.663 18.9959 200.934 18.7602 200.106 18.6423C199.318 18.5245 198.55 18.4655 197.801 18.4655H192.422V28.1894H197.21C198.037 28.1894 198.885 28.1305 199.752 28.0126C200.619 27.8554 201.407 27.6001 202.116 27.2465C202.826 26.8929 203.397 26.3821 203.831 25.7142C204.303 25.0463 204.54 24.182 204.54 23.1212Z" fill="white"/>
<path d="M247.596 37.265C247.596 39.6616 247.163 41.8421 246.296 43.8065C245.429 45.7316 244.247 47.3818 242.749 48.7569C241.251 50.0927 239.517 51.1338 237.547 51.8803C235.577 52.6268 233.468 53 231.222 53C229.015 53 226.907 52.6268 224.897 51.8803C222.926 51.1338 221.192 50.0927 219.695 48.7569C218.237 47.3818 217.074 45.7316 216.207 43.8065C215.34 41.8421 214.907 39.6616 214.907 37.265C214.907 34.8684 215.34 32.7076 216.207 30.7824C217.074 28.8573 218.237 27.2268 219.695 25.891C221.192 24.5552 222.926 23.5337 224.897 22.8265C226.907 22.1193 229.015 21.7658 231.222 21.7658C233.468 21.7658 235.577 22.1193 237.547 22.8265C239.517 23.5337 241.251 24.5552 242.749 25.891C244.247 27.2268 245.429 28.8573 246.296 30.7824C247.163 32.7076 247.596 34.8684 247.596 37.265ZM238.256 37.265C238.256 36.3221 238.099 35.3988 237.783 34.4952C237.468 33.5915 237.015 32.8058 236.424 32.1379C235.833 31.4307 235.104 30.861 234.237 30.4288C233.37 29.9967 232.365 29.7806 231.222 29.7806C230.079 29.7806 229.074 29.9967 228.207 30.4288C227.34 30.861 226.611 31.4307 226.02 32.1379C225.468 32.8058 225.035 33.5915 224.719 34.4952C224.443 35.3988 224.306 36.3221 224.306 37.265C224.306 38.2079 224.443 39.1312 224.719 40.0348C225.035 40.9385 225.488 41.7635 226.079 42.51C226.67 43.2172 227.399 43.7869 228.266 44.219C229.133 44.6512 230.138 44.8673 231.281 44.8673C232.424 44.8673 233.429 44.6512 234.296 44.219C235.163 43.7869 235.892 43.2172 236.483 42.51C237.074 41.7635 237.508 40.9385 237.783 40.0348C238.099 39.1312 238.256 38.2079 238.256 37.265Z" fill="white"/>
<path d="M280.808 37.265C280.808 39.6616 280.375 41.8421 279.508 43.8065C278.641 45.7316 277.459 47.3818 275.961 48.7569C274.463 50.0927 272.729 51.1338 270.759 51.8803C268.789 52.6268 266.68 53 264.434 53C262.227 53 260.119 52.6268 258.109 51.8803C256.138 51.1338 254.404 50.0927 252.907 48.7569C251.449 47.3818 250.286 45.7316 249.419 43.8065C248.552 41.8421 248.119 39.6616 248.119 37.265C248.119 34.8684 248.552 32.7076 249.419 30.7824C250.286 28.8573 251.449 27.2268 252.907 25.891C254.404 24.5552 256.138 23.5337 258.109 22.8265C260.119 22.1193 262.227 21.7658 264.434 21.7658C266.68 21.7658 268.789 22.1193 270.759 22.8265C272.729 23.5337 274.463 24.5552 275.961 25.891C277.459 27.2268 278.641 28.8573 279.508 30.7824C280.375 32.7076 280.808 34.8684 280.808 37.265ZM271.468 37.265C271.468 36.3221 271.311 35.3988 270.995 34.4952C270.68 33.5915 270.227 32.8058 269.636 32.1379C269.045 31.4307 268.316 30.861 267.449 30.4288C266.582 29.9967 265.577 29.7806 264.434 29.7806C263.291 29.7806 262.286 29.9967 261.419 30.4288C260.552 30.861 259.823 31.4307 259.232 32.1379C258.68 32.8058 258.247 33.5915 257.931 34.4952C257.656 35.3988 257.518 36.3221 257.518 37.265C257.518 38.2079 257.656 39.1312 257.931 40.0348C258.247 40.9385 258.7 41.7635 259.291 42.51C259.882 43.2172 260.611 43.7869 261.478 44.219C262.345 44.6512 263.35 44.8673 264.493 44.8673C265.636 44.8673 266.641 44.6512 267.508 44.219C268.375 43.7869 269.104 43.2172 269.695 42.51C270.286 41.7635 270.72 40.9385 270.995 40.0348C271.311 39.1312 271.468 38.2079 271.468 37.265Z" fill="white"/>
<path d="M293.331 29.9574V41.1546C293.331 42.5296 293.587 43.5708 294.099 44.278C294.651 44.9459 295.616 45.2798 296.996 45.2798C297.469 45.2798 297.961 45.2405 298.474 45.162C299.025 45.0834 299.478 44.9655 299.833 44.8084L299.951 51.8803C299.281 52.116 298.434 52.3125 297.41 52.4696C296.385 52.6661 295.36 52.7643 294.336 52.7643C292.365 52.7643 290.71 52.5285 289.37 52.0571C288.03 51.5463 286.946 50.8391 286.119 49.9355C285.331 48.9926 284.759 47.8925 284.405 46.6353C284.05 45.3388 283.873 43.9047 283.873 42.3332V29.9574H279.143V22.7087H283.813V14.9885H293.331V22.7087H300.247V29.9574H293.331Z" fill="white"/>
<path d="M311.187 13.3384C311.187 14.0849 311.029 14.7921 310.714 15.46C310.438 16.0886 310.044 16.6386 309.532 17.1101C309.059 17.5815 308.468 17.9548 307.759 18.2298C307.089 18.5048 306.379 18.6423 305.63 18.6423C304.054 18.6423 302.734 18.1316 301.67 17.1101C300.606 16.0493 300.074 14.7921 300.074 13.3384C300.074 12.6312 300.212 11.9633 300.488 11.3347C300.763 10.6668 301.158 10.0971 301.67 9.62565C302.182 9.15419 302.773 8.78095 303.443 8.50593C304.113 8.19162 304.842 8.03447 305.63 8.03447C306.379 8.03447 307.089 8.17198 307.759 8.447C308.468 8.72201 309.059 9.09525 309.532 9.56671C310.044 10.0382 310.438 10.6079 310.714 11.2758C311.029 11.9044 311.187 12.5919 311.187 13.3384ZM300.783 52.0571V22.7087H310.478V52.0571H300.783Z" fill="white"/>
<path d="M333.349 52.0571V36.0274C333.349 35.2024 333.27 34.4166 333.112 33.6701C332.994 32.9236 332.777 32.2754 332.462 31.7253C332.147 31.136 331.693 30.6842 331.102 30.3699C330.551 30.0163 329.841 29.8395 328.974 29.8395C328.107 29.8395 327.339 30.0163 326.669 30.3699C326.038 30.6842 325.506 31.136 325.073 31.7253C324.639 32.3147 324.304 33.0022 324.068 33.788C323.871 34.5345 323.772 35.3202 323.772 36.1453V52.0571H314.019V22.7087H323.418V26.775H323.536C323.89 26.1464 324.344 25.5374 324.895 24.9481C325.487 24.3195 326.156 23.7891 326.905 23.3569C327.693 22.9248 328.541 22.5712 329.447 22.2961C330.354 22.0211 331.319 21.8836 332.344 21.8836C334.314 21.8836 335.989 22.2372 337.368 22.9444C338.748 23.6516 339.851 24.5749 340.679 25.7142C341.546 26.8143 342.157 28.0912 342.511 29.5448C342.905 30.9985 343.102 32.4522 343.102 33.9059V52.0571H333.349Z" fill="white"/>
<path d="M366.583 34.0237C366.583 32.4915 366.09 31.1753 365.105 30.0752C364.159 28.9752 362.721 28.4251 360.79 28.4251C359.844 28.4251 358.977 28.5823 358.189 28.8966C357.401 29.1716 356.711 29.5645 356.12 30.0752C355.529 30.586 355.056 31.195 354.701 31.9021C354.346 32.57 354.149 33.2772 354.11 34.0237H366.583ZM375.509 37.7365C375.509 38.1294 375.509 38.5222 375.509 38.9151C375.509 39.308 375.489 39.6812 375.45 40.0348H354.11C354.189 40.8599 354.425 41.6064 354.819 42.2743C355.253 42.9422 355.785 43.5315 356.415 44.0422C357.085 44.5137 357.814 44.887 358.603 45.162C359.43 45.437 360.277 45.5745 361.144 45.5745C362.681 45.5745 363.982 45.2995 365.046 44.7494C366.11 44.1601 366.977 43.4136 367.647 42.51L374.386 46.7531C373.007 48.7569 371.174 50.3087 368.888 51.4088C366.642 52.4696 364.021 53 361.026 53C358.819 53 356.731 52.6661 354.76 51.9981C352.79 51.291 351.056 50.2891 349.558 48.9926C348.1 47.6568 346.937 46.0263 346.07 44.1012C345.243 42.1761 344.829 39.9759 344.829 37.5007C344.829 35.1041 345.243 32.9433 346.07 31.0182C346.898 29.0537 348.021 27.4036 349.44 26.0678C350.859 24.6927 352.534 23.6319 354.465 22.8855C356.396 22.139 358.484 21.7658 360.731 21.7658C362.898 21.7658 364.888 22.139 366.701 22.8855C368.514 23.5927 370.071 24.6338 371.371 26.0089C372.672 27.384 373.676 29.0537 374.386 31.0182C375.135 32.9826 375.509 35.222 375.509 37.7365Z" fill="white"/>
<path d="M394.703 31.3718C393.915 30.6253 392.989 29.9967 391.925 29.4859C390.861 28.9752 389.738 28.7198 388.556 28.7198C387.649 28.7198 386.802 28.8966 386.014 29.2502C385.265 29.6038 384.891 30.2127 384.891 31.0771C384.891 31.9021 385.304 32.4915 386.132 32.8451C386.999 33.1987 388.378 33.5915 390.27 34.0237C391.373 34.2594 392.477 34.5934 393.58 35.0256C394.723 35.4577 395.748 36.0274 396.654 36.7346C397.56 37.4418 398.29 38.3062 398.841 39.3276C399.393 40.3491 399.669 41.5671 399.669 42.9815C399.669 44.828 399.294 46.3996 398.546 47.6961C397.797 48.9533 396.812 49.9748 395.59 50.7606C394.408 51.5463 393.068 52.116 391.57 52.4696C390.073 52.8232 388.575 53 387.078 53C384.674 53 382.309 52.6268 379.984 51.8803C377.698 51.0945 375.787 49.9551 374.25 48.4622L379.689 42.7457C380.555 43.6887 381.62 44.4744 382.881 45.103C384.142 45.7317 385.482 46.046 386.9 46.046C387.689 46.046 388.457 45.8692 389.206 45.5156C389.994 45.1227 390.388 44.4548 390.388 43.5119C390.388 42.6082 389.915 41.9403 388.969 41.5082C388.024 41.076 386.546 40.6242 384.536 40.1527C383.511 39.917 382.487 39.6027 381.462 39.2098C380.437 38.8169 379.511 38.2865 378.684 37.6186C377.895 36.9507 377.245 36.1256 376.733 35.1434C376.221 34.1612 375.964 32.9826 375.964 31.6075C375.964 29.8395 376.339 28.3466 377.088 27.1286C377.836 25.8714 378.802 24.8499 379.984 24.0641C381.166 23.2784 382.467 22.7087 383.886 22.3551C385.344 21.9622 386.782 21.7658 388.201 21.7658C390.408 21.7658 392.556 22.1193 394.644 22.8265C396.772 23.4944 398.565 24.5159 400.024 25.891L394.703 31.3718Z" fill="white"/>
<path d="M406.11 22.861C406.238 22.9624 406.375 23.0639 406.512 23.1568C406.557 23.1864 406.583 23.2033 406.588 23.2075C406.624 23.2326 406.667 23.246 406.712 23.2456C406.747 23.246 406.782 23.2381 406.814 23.2227C406.845 23.2072 406.873 23.1846 406.893 23.1568C406.926 23.1107 406.94 23.0539 406.93 22.9986C406.92 22.9433 406.887 22.8939 406.84 22.861L406.747 22.7976C406.676 22.7469 406.57 22.675 406.437 22.5736C405.612 21.9456 404.917 21.1759 404.388 20.304C402.476 17.1468 403.242 13.0091 406.211 10.4605C407.397 9.46902 408.727 8.64623 410.159 8.0176C403.623 12.7893 404.747 16.9946 404.8 17.1806C404.813 17.2284 404.843 17.2703 404.885 17.2989C404.927 17.3275 404.978 17.341 405.03 17.337C409.03 17.02 411.991 15.5872 413.832 13.0767C417.536 8.02607 415.376 0.232456 415.354 0.156372C415.343 0.112025 415.316 0.07263 415.278 0.04434C415.24 0.01605 415.194 0.000458302 415.146 0H415.142C415.095 9.31293e-06 415.049 0.0143351 415.01 0.0409148C414.972 0.0674944 414.944 0.104957 414.929 0.147908C414.921 0.181735 413.819 3.47416 408.955 4.8182C406.338 5.50836 403.986 6.90551 402.18 8.84178C401.802 9.26026 401.492 9.73037 401.259 10.2365C398.436 16.4072 404.34 21.5128 406.11 22.861Z" fill="white"/>
</svg>
