<svg width="1219" height="139" viewBox="0 0 1219 139" fill="none" xmlns="http://www.w3.org/2000/svg">
<path d="M81 136.08L29.7 52.7401H29.16L29.88 136.08H-1.35005e-05V8.64008H35.1L86.22 91.8001H86.76L86.04 8.64008H115.92V136.08H81ZM180.907 97.0201H177.127C173.887 97.0201 170.587 97.2001 167.227 97.5601C163.987 97.8001 161.047 98.3401 158.407 99.1801C155.887 100.02 153.787 101.28 152.107 102.96C150.427 104.52 149.587 106.62 149.587 109.26C149.587 110.94 149.947 112.38 150.667 113.58C151.507 114.78 152.527 115.74 153.727 116.46C154.927 117.18 156.307 117.72 157.867 118.08C159.427 118.32 160.927 118.44 162.367 118.44C168.367 118.44 172.927 116.82 176.047 113.58C179.287 110.22 180.907 105.72 180.907 100.08V97.0201ZM126.727 58.6801C132.007 53.6401 138.127 49.8601 145.087 47.3401C152.167 44.8201 159.367 43.5601 166.687 43.5601C174.247 43.5601 180.607 44.5201 185.767 46.4401C191.047 48.2401 195.307 51.1201 198.547 55.0801C201.787 58.9201 204.127 63.8401 205.567 69.8401C207.127 75.7201 207.907 82.7401 207.907 90.9001V136.08H180.907V126.54H180.367C178.087 130.26 174.607 133.14 169.927 135.18C165.367 137.22 160.387 138.24 154.987 138.24C151.387 138.24 147.667 137.76 143.827 136.8C139.987 135.84 136.447 134.28 133.207 132.12C130.087 129.96 127.507 127.08 125.467 123.48C123.427 119.88 122.407 115.44 122.407 110.16C122.407 103.68 124.147 98.4601 127.627 94.5001C131.227 90.5401 135.787 87.4801 141.307 85.3201C146.947 83.1601 153.187 81.7201 160.027 81.0001C166.867 80.2801 173.527 79.9201 180.007 79.9201V78.4801C180.007 74.0401 178.447 70.8001 175.327 68.7601C172.207 66.6001 168.367 65.5201 163.807 65.5201C159.607 65.5201 155.527 66.4201 151.567 68.2201C147.727 70.0201 144.427 72.1801 141.667 74.7001L126.727 58.6801ZM247.622 68.5801V102.78C247.622 106.98 248.402 110.16 249.962 112.32C251.642 114.36 254.582 115.38 258.782 115.38C260.222 115.38 261.722 115.26 263.282 115.02C264.962 114.78 266.342 114.42 267.422 113.94L267.782 135.54C265.742 136.26 263.162 136.86 260.042 137.34C256.922 137.94 253.802 138.24 250.682 138.24C244.682 138.24 239.642 137.52 235.562 136.08C231.482 134.52 228.182 132.36 225.662 129.6C223.262 126.72 221.522 123.36 220.442 119.52C219.362 115.56 218.822 111.18 218.822 106.38V68.5801H204.422V46.4401H218.642V22.8601H247.622V46.4401H268.682V68.5801H247.622ZM328.995 136.08V123.66H328.635C327.555 125.7 326.115 127.62 324.315 129.42C322.635 131.22 320.595 132.78 318.195 134.1C315.915 135.42 313.335 136.5 310.455 137.34C307.695 138.18 304.755 138.6 301.635 138.6C295.635 138.6 290.535 137.52 286.335 135.36C282.255 133.2 278.895 130.44 276.255 127.08C273.735 123.6 271.875 119.7 270.675 115.38C269.595 110.94 269.055 106.44 269.055 101.88V46.4401H298.755V95.0401C298.755 97.5601 298.935 99.9601 299.295 102.24C299.655 104.52 300.315 106.56 301.275 108.36C302.355 110.16 303.735 111.6 305.415 112.68C307.095 113.64 309.315 114.12 312.075 114.12C317.235 114.12 321.135 112.2 323.775 108.36C326.535 104.52 327.915 100.02 327.915 94.8601V46.4401H357.435V136.08H328.995ZM426.061 70.5601C424.741 70.2001 423.421 69.9601 422.101 69.8401C420.901 69.7201 419.701 69.6601 418.501 69.6601C414.541 69.6601 411.181 70.3801 408.421 71.8201C405.781 73.2601 403.621 75.0001 401.941 77.0401C400.381 79.0801 399.241 81.3001 398.521 83.7001C397.801 86.1001 397.441 88.2001 397.441 90.0001V136.08H367.921V46.4401H396.361V59.4001H396.721C399.001 54.8401 402.241 51.1201 406.441 48.2401C410.641 45.3601 415.501 43.9201 421.021 43.9201C422.221 43.9201 423.361 43.9801 424.441 44.1001C425.641 44.2201 426.601 44.4001 427.321 44.6401L426.061 70.5601ZM476.796 97.0201H473.016C469.776 97.0201 466.476 97.2001 463.116 97.5601C459.876 97.8001 456.936 98.3401 454.296 99.1801C451.776 100.02 449.676 101.28 447.996 102.96C446.316 104.52 445.476 106.62 445.476 109.26C445.476 110.94 445.836 112.38 446.556 113.58C447.396 114.78 448.416 115.74 449.616 116.46C450.816 117.18 452.196 117.72 453.756 118.08C455.316 118.32 456.816 118.44 458.256 118.44C464.256 118.44 468.816 116.82 471.936 113.58C475.176 110.22 476.796 105.72 476.796 100.08V97.0201ZM422.616 58.6801C427.896 53.6401 434.016 49.8601 440.976 47.3401C448.056 44.8201 455.256 43.5601 462.576 43.5601C470.136 43.5601 476.496 44.5201 481.656 46.4401C486.936 48.2401 491.196 51.1201 494.436 55.0801C497.676 58.9201 500.016 63.8401 501.456 69.8401C503.016 75.7201 503.796 82.7401 503.796 90.9001V136.08H476.796V126.54H476.256C473.976 130.26 470.496 133.14 465.816 135.18C461.256 137.22 456.276 138.24 450.876 138.24C447.276 138.24 443.556 137.76 439.716 136.8C435.876 135.84 432.336 134.28 429.096 132.12C425.976 129.96 423.396 127.08 421.356 123.48C419.316 119.88 418.296 115.44 418.296 110.16C418.296 103.68 420.036 98.4601 423.516 94.5001C427.116 90.5401 431.676 87.4801 437.196 85.3201C442.836 83.1601 449.076 81.7201 455.916 81.0001C462.756 80.2801 469.416 79.9201 475.896 79.9201V78.4801C475.896 74.0401 474.336 70.8001 471.216 68.7601C468.096 66.6001 464.256 65.5201 459.696 65.5201C455.496 65.5201 451.416 66.4201 447.456 68.2201C443.616 70.0201 440.316 72.1801 437.556 74.7001L422.616 58.6801ZM513.589 136.08V7.05719e-05H543.469V136.08H513.589ZM624.082 136.08L596.542 85.5001H586.102V136.08H555.862V8.64008H604.462C610.582 8.64008 616.522 9.30008 622.282 10.6201C628.162 11.8201 633.382 13.9201 637.942 16.9201C642.622 19.9201 646.342 23.8801 649.102 28.8001C651.862 33.7201 653.242 39.8401 653.242 47.1601C653.242 55.8001 650.902 63.0601 646.222 68.9401C641.542 74.8201 635.062 79.0201 626.782 81.5401L660.082 136.08H624.082ZM622.822 47.7001C622.822 44.7001 622.162 42.3001 620.842 40.5001C619.642 38.5801 618.022 37.1401 615.982 36.1801C614.062 35.1001 611.842 34.3801 609.322 34.0201C606.922 33.6601 604.582 33.4801 602.302 33.4801H585.922V63.1801H600.502C603.022 63.1801 605.602 63.0001 608.242 62.6401C610.882 62.1601 613.282 61.3801 615.442 60.3001C617.602 59.2201 619.342 57.6601 620.662 55.6201C622.102 53.5801 622.822 50.9401 622.822 47.7001ZM753.929 90.9001C753.929 98.2201 752.609 104.88 749.969 110.88C747.329 116.76 743.729 121.8 739.169 126C734.609 130.08 729.329 133.26 723.329 135.54C717.329 137.82 710.909 138.96 704.069 138.96C697.349 138.96 690.929 137.82 684.809 135.54C678.809 133.26 673.529 130.08 668.969 126C664.529 121.8 660.989 116.76 658.349 110.88C655.709 104.88 654.389 98.2201 654.389 90.9001C654.389 83.5801 655.709 76.9801 658.349 71.1001C660.989 65.2201 664.529 60.2401 668.969 56.1601C673.529 52.0801 678.809 48.9601 684.809 46.8001C690.929 44.6401 697.349 43.5601 704.069 43.5601C710.909 43.5601 717.329 44.6401 723.329 46.8001C729.329 48.9601 734.609 52.0801 739.169 56.1601C743.729 60.2401 747.329 65.2201 749.969 71.1001C752.609 76.9801 753.929 83.5801 753.929 90.9001ZM725.489 90.9001C725.489 88.0201 725.009 85.2001 724.049 82.4401C723.089 79.6801 721.709 77.2801 719.909 75.2401C718.109 73.0801 715.889 71.3401 713.249 70.0201C710.609 68.7001 707.549 68.0401 704.069 68.0401C700.589 68.0401 697.529 68.7001 694.889 70.0201C692.249 71.3401 690.029 73.0801 688.229 75.2401C686.549 77.2801 685.229 79.6801 684.269 82.4401C683.429 85.2001 683.009 88.0201 683.009 90.9001C683.009 93.7801 683.429 96.6001 684.269 99.3601C685.229 102.12 686.609 104.64 688.409 106.92C690.209 109.08 692.429 110.82 695.069 112.14C697.709 113.46 700.769 114.12 704.249 114.12C707.729 114.12 710.789 113.46 713.429 112.14C716.069 110.82 718.289 109.08 720.089 106.92C721.889 104.64 723.209 102.12 724.049 99.3601C725.009 96.6001 725.489 93.7801 725.489 90.9001ZM855.059 90.9001C855.059 98.2201 853.739 104.88 851.099 110.88C848.459 116.76 844.859 121.8 840.299 126C835.739 130.08 830.459 133.26 824.459 135.54C818.459 137.82 812.039 138.96 805.199 138.96C798.479 138.96 792.059 137.82 785.939 135.54C779.939 133.26 774.659 130.08 770.099 126C765.659 121.8 762.119 116.76 759.479 110.88C756.839 104.88 755.519 98.2201 755.519 90.9001C755.519 83.5801 756.839 76.9801 759.479 71.1001C762.119 65.2201 765.659 60.2401 770.099 56.1601C774.659 52.0801 779.939 48.9601 785.939 46.8001C792.059 44.6401 798.479 43.5601 805.199 43.5601C812.039 43.5601 818.459 44.6401 824.459 46.8001C830.459 48.9601 835.739 52.0801 840.299 56.1601C844.859 60.2401 848.459 65.2201 851.099 71.1001C853.739 76.9801 855.059 83.5801 855.059 90.9001ZM826.619 90.9001C826.619 88.0201 826.139 85.2001 825.179 82.4401C824.219 79.6801 822.839 77.2801 821.039 75.2401C819.239 73.0801 817.019 71.3401 814.379 70.0201C811.739 68.7001 808.679 68.0401 805.199 68.0401C801.719 68.0401 798.659 68.7001 796.019 70.0201C793.379 71.3401 791.159 73.0801 789.359 75.2401C787.679 77.2801 786.359 79.6801 785.399 82.4401C784.559 85.2001 784.139 88.0201 784.139 90.9001C784.139 93.7801 784.559 96.6001 785.399 99.3601C786.359 102.12 787.739 104.64 789.539 106.92C791.339 109.08 793.559 110.82 796.199 112.14C798.839 113.46 801.899 114.12 805.379 114.12C808.859 114.12 811.919 113.46 814.559 112.14C817.199 110.82 819.419 109.08 821.219 106.92C823.019 104.64 824.339 102.12 825.179 99.3601C826.139 96.6001 826.619 93.7801 826.619 90.9001ZM893.19 68.5801V102.78C893.19 106.98 893.97 110.16 895.53 112.32C897.21 114.36 900.15 115.38 904.35 115.38C905.79 115.38 907.29 115.26 908.85 115.02C910.53 114.78 911.91 114.42 912.99 113.94L913.35 135.54C911.31 136.26 908.73 136.86 905.61 137.34C902.49 137.94 899.37 138.24 896.25 138.24C890.25 138.24 885.21 137.52 881.13 136.08C877.05 134.52 873.75 132.36 871.23 129.6C868.83 126.72 867.09 123.36 866.01 119.52C864.93 115.56 864.39 111.18 864.39 106.38V68.5801H849.99V46.4401H864.21V22.8601H893.19V46.4401H914.25V68.5801H893.19ZM947.562 17.8201C947.562 20.1001 947.082 22.2601 946.122 24.3001C945.282 26.2201 944.082 27.9001 942.522 29.3401C941.082 30.7801 939.282 31.9201 937.122 32.7601C935.082 33.6001 932.922 34.0201 930.642 34.0201C925.842 34.0201 921.822 32.4601 918.582 29.3401C915.342 26.1001 913.722 22.2601 913.722 17.8201C913.722 15.6601 914.142 13.6201 914.982 11.7001C915.822 9.66007 917.022 7.92008 918.582 6.48007C920.142 5.04007 921.942 3.90007 923.982 3.06007C926.022 2.10007 928.242 1.62007 930.642 1.62007C932.922 1.62007 935.082 2.04007 937.122 2.88008C939.282 3.72007 941.082 4.86007 942.522 6.30008C944.082 7.74007 945.282 9.48007 946.122 11.5201C947.082 13.4401 947.562 15.5401 947.562 17.8201ZM915.882 136.08V46.4401H945.402V136.08H915.882ZM1015.04 136.08V87.1201C1015.04 84.6001 1014.8 82.2001 1014.32 79.9201C1013.96 77.6401 1013.3 75.6601 1012.34 73.9801C1011.38 72.1801 1010 70.8001 1008.2 69.8401C1006.52 68.7601 1004.36 68.2201 1001.72 68.2201C999.084 68.2201 996.744 68.7601 994.704 69.8401C992.784 70.8001 991.164 72.1801 989.844 73.9801C988.524 75.7801 987.504 77.8801 986.784 80.2801C986.184 82.5601 985.884 84.9601 985.884 87.4801V136.08H956.184V46.4401H984.804V58.8601H985.164C986.244 56.9401 987.624 55.0801 989.304 53.2801C991.104 51.3601 993.144 49.7401 995.424 48.4201C997.824 47.1001 1000.4 46.0201 1003.16 45.1801C1005.92 44.3401 1008.86 43.9201 1011.98 43.9201C1017.98 43.9201 1023.08 45.0001 1027.28 47.1601C1031.48 49.3201 1034.84 52.1401 1037.36 55.6201C1040 58.9801 1041.86 62.8801 1042.94 67.3201C1044.14 71.7601 1044.74 76.2001 1044.74 80.6401V136.08H1015.04ZM1116.24 81.0001C1116.24 76.3201 1114.74 72.3001 1111.74 68.9401C1108.86 65.5801 1104.48 63.9001 1098.6 63.9001C1095.72 63.9001 1093.08 64.3801 1090.68 65.3401C1088.28 66.1801 1086.18 67.3801 1084.38 68.9401C1082.58 70.5001 1081.14 72.3601 1080.06 74.5201C1078.98 76.5601 1078.38 78.7201 1078.26 81.0001H1116.24ZM1143.42 92.3401C1143.42 93.5401 1143.42 94.7401 1143.42 95.9401C1143.42 97.1401 1143.36 98.2801 1143.24 99.3601H1078.26C1078.5 101.88 1079.22 104.16 1080.42 106.2C1081.74 108.24 1083.36 110.04 1085.28 111.6C1087.32 113.04 1089.54 114.18 1091.94 115.02C1094.46 115.86 1097.04 116.28 1099.68 116.28C1104.36 116.28 1108.32 115.44 1111.56 113.76C1114.8 111.96 1117.44 109.68 1119.48 106.92L1140 119.88C1135.8 126 1130.22 130.74 1123.26 134.1C1116.42 137.34 1108.44 138.96 1099.32 138.96C1092.6 138.96 1086.24 137.94 1080.24 135.9C1074.24 133.74 1068.96 130.68 1064.4 126.72C1059.96 122.64 1056.42 117.66 1053.78 111.78C1051.26 105.9 1050 99.1801 1050 91.6201C1050 84.3001 1051.26 77.7001 1053.78 71.8201C1056.3 65.8201 1059.72 60.7801 1064.04 56.7001C1068.36 52.5001 1073.46 49.2601 1079.34 46.9801C1085.22 44.7001 1091.58 43.5601 1098.42 43.5601C1105.02 43.5601 1111.08 44.7001 1116.6 46.9801C1122.12 49.1401 1126.86 52.3201 1130.82 56.5201C1134.78 60.7201 1137.84 65.8201 1140 71.8201C1142.28 77.8201 1143.42 84.6601 1143.42 92.3401ZM1201.87 72.9001C1199.47 70.6201 1196.65 68.7001 1193.41 67.1401C1190.17 65.5801 1186.75 64.8001 1183.15 64.8001C1180.39 64.8001 1177.81 65.3401 1175.41 66.4201C1173.13 67.5001 1171.99 69.3601 1171.99 72.0001C1171.99 74.5201 1173.25 76.3201 1175.77 77.4001C1178.41 78.4801 1182.61 79.6801 1188.37 81.0001C1191.73 81.7201 1195.09 82.7401 1198.45 84.0601C1201.93 85.3801 1205.05 87.1201 1207.81 89.2801C1210.57 91.4401 1212.79 94.0801 1214.47 97.2001C1216.15 100.32 1216.99 104.04 1216.99 108.36C1216.99 114 1215.85 118.8 1213.57 122.76C1211.29 126.6 1208.29 129.72 1204.57 132.12C1200.97 134.52 1196.89 136.26 1192.33 137.34C1187.77 138.42 1183.21 138.96 1178.65 138.96C1171.33 138.96 1164.13 137.82 1157.05 135.54C1150.09 133.14 1144.27 129.66 1139.59 125.1L1156.15 107.64C1158.79 110.52 1162.03 112.92 1165.87 114.84C1169.71 116.76 1173.79 117.72 1178.11 117.72C1180.51 117.72 1182.85 117.18 1185.13 116.1C1187.53 114.9 1188.73 112.86 1188.73 109.98C1188.73 107.22 1187.29 105.18 1184.41 103.86C1181.53 102.54 1177.03 101.16 1170.91 99.7201C1167.79 99.0001 1164.67 98.0401 1161.55 96.8401C1158.43 95.6401 1155.61 94.0201 1153.09 91.9801C1150.69 89.9401 1148.71 87.4201 1147.15 84.4201C1145.59 81.4201 1144.81 77.8201 1144.81 73.6201C1144.81 68.2201 1145.95 63.6601 1148.23 59.9401C1150.51 56.1001 1153.45 52.9801 1157.05 50.5801C1160.65 48.1801 1164.61 46.4401 1168.93 45.3601C1173.37 44.1601 1177.75 43.5601 1182.07 43.5601C1188.79 43.5601 1195.33 44.6401 1201.69 46.8001C1208.17 48.8401 1213.63 51.9601 1218.07 56.1601L1201.87 72.9001Z" fill="black"/>
</svg>
